<svg width="50" height="40" viewBox="0 0 50 40" fill="none" xmlns="http://www.w3.org/2000/svg">
<path d="M7.69231 0.769226C3.46731 0.769226 0 4.23461 0 8.46153V31.5385C0 35.7635 3.46731 39.2308 7.69231 39.2308H11.5385C12.0485 39.2308 12.5376 39.0282 12.8983 38.6675C13.2589 38.3069 13.4615 37.8177 13.4615 37.3077V35.3846H15.3846V37.3077C15.3846 37.8177 15.5872 38.3069 15.9479 38.6675C16.3085 39.0282 16.7977 39.2308 17.3077 39.2308H32.6923C33.2023 39.2308 33.6915 39.0282 34.0521 38.6675C34.4128 38.3069 34.6154 37.8177 34.6154 37.3077V35.3846H36.5385V37.3077C36.5385 37.8177 36.7411 38.3069 37.1017 38.6675C37.4624 39.0282 37.9515 39.2308 38.4615 39.2308H42.3077C46.5327 39.2308 50 35.7635 50 31.5385V8.46153C50 4.23461 46.5327 0.769226 42.3077 0.769226H7.69231ZM7.69231 4.61538H42.3077C44.4519 4.61538 46.1538 6.31538 46.1538 8.46153V31.5385C46.1538 33.6827 44.4519 35.3846 42.3077 35.3846H40.3846V33.4615C40.3846 32.9515 40.182 32.4624 39.8214 32.1017C39.4607 31.7411 38.9716 31.5385 38.4615 31.5385H32.6923C32.1823 31.5385 31.6931 31.7411 31.3325 32.1017C30.9718 32.4624 30.7692 32.9515 30.7692 33.4615V35.3846H19.2308V33.4615C19.2308 32.9515 19.0282 32.4624 18.6675 32.1017C18.3069 31.7411 17.8177 31.5385 17.3077 31.5385H11.5385C11.0284 31.5385 10.5393 31.7411 10.1786 32.1017C9.81799 32.4624 9.61538 32.9515 9.61538 33.4615V35.3846H7.69231C5.54808 35.3846 3.84615 33.6827 3.84615 31.5385V8.46153C3.84615 6.31538 5.54808 4.61538 7.69231 4.61538ZM15.3846 8.58269C13.1923 8.58269 11.5981 10.1346 11.5981 12.9673C11.5981 14.8192 12.3865 16.075 13.5212 17.2365C13.9635 18.3961 13.1462 18.7961 12.9808 18.8577C10.6885 19.6865 7.81154 20.9115 7.81154 22.4038V23.1846C7.81154 25.2192 11.7365 25.6481 15.3846 25.6481C19.0385 25.6481 22.9577 25.2192 22.9577 23.1865V22.4038C22.9577 20.8654 20.0731 19.6538 17.6692 18.8577C17.5558 18.8211 16.8731 18.55 17.3077 17.2346C18.4385 16.0731 19.1115 14.8115 19.1115 12.9692C19.1115 10.1327 17.575 8.58269 15.3846 8.58269ZM35.5769 8.64038C34.4077 8.64038 33.3019 8.80961 32.2712 9.2423C31.2596 9.6588 30.3406 10.2716 29.5672 11.0453C28.7938 11.819 28.1814 12.7383 27.7654 13.75C27.3288 14.7788 27.1635 15.9231 27.1635 17.1154C27.1635 18.3692 27.3462 19.4923 27.7654 20.5404C28.1808 21.5923 28.7596 22.4923 29.5077 23.2442C30.2462 23.9904 31.1269 24.5769 32.1519 24.9885C33.2252 25.4011 34.3675 25.6048 35.5173 25.5885C36.2288 25.5885 36.8635 25.5942 37.4404 25.5288C38.0135 25.4654 38.625 25.3635 39.2423 25.2288V23.125C38.6788 23.2885 38.05 23.4481 37.3808 23.5461C36.7115 23.6423 36.0865 23.6654 35.5154 23.6654C34.7077 23.6654 33.9115 23.5269 33.1731 23.2442C32.45 22.9645 31.7946 22.5345 31.25 21.9827C30.6474 21.4095 30.1757 20.7128 29.8673 19.9404C29.5365 19.1135 29.3865 18.1711 29.3865 17.1154C29.3865 16.125 29.5788 15.2288 29.9269 14.4115C30.2808 13.5942 30.7346 12.8654 31.3115 12.3077C31.9135 11.7308 32.5808 11.3365 33.2923 11.0461C34.0077 10.7519 34.7731 10.5654 35.5769 10.5654C36.4231 10.5654 37.1904 10.7231 37.9212 10.9865C38.6519 11.2481 39.3019 11.6404 39.8442 12.1865C40.3808 12.725 40.8077 13.375 41.1058 14.1711C41.4058 14.9692 41.5269 15.9308 41.5269 16.9961C41.5269 17.5981 41.4712 18.1538 41.3462 18.7385C41.2426 19.2748 41.0815 19.7983 40.8654 20.3H39.3635V12.4269H37.0769V13.0288C36.8449 12.811 36.5818 12.6289 36.2962 12.4885C35.9398 12.319 35.5483 12.2366 35.1538 12.2481C34.6115 12.2481 34.0923 12.3673 33.5923 12.6077C33.0923 12.8381 32.6427 13.1648 32.2692 13.5692C31.8846 14.0173 31.6 14.5788 31.3692 15.1923C31.1385 15.8077 31.0077 16.4827 31.0077 17.2365C31.0077 17.9673 31.1192 18.6558 31.3077 19.2788C31.4942 19.9038 31.7077 20.4404 32.0288 20.8423C32.3558 21.2558 32.7827 21.5231 33.2308 21.7423C33.6788 21.9615 34.1558 22.1038 34.6731 22.1038C35.025 22.1038 35.3135 22.0827 35.5154 22.0442C35.7212 22.0019 35.9385 21.9481 36.175 21.8635C36.3865 21.7942 36.5404 21.7269 36.7173 21.6231C36.8865 21.5192 37.0808 21.3788 37.2577 21.2615L37.3788 21.9231H42.3654C42.8229 21.2414 43.1682 20.4909 43.3885 19.7C43.6577 18.7442 43.7481 17.8231 43.7481 16.9346C43.7481 15.6788 43.5577 14.5231 43.1462 13.5096C42.7496 12.5373 42.1564 11.6574 41.4038 10.925C40.6681 10.1921 39.7888 9.61922 38.8212 9.2423C37.7877 8.83558 36.6856 8.63187 35.575 8.6423L35.5769 8.64038ZM35.4558 14.1711C35.7538 14.1711 36.0615 14.1711 36.2981 14.2308C36.5327 14.2904 36.7404 14.3961 37.0192 14.5308V19.4596C36.7856 19.6754 36.5228 19.8573 36.2385 20C35.9621 20.153 35.6524 20.2355 35.3365 20.2404C34.6635 20.2404 34.1885 19.9558 33.8942 19.4596C33.6 18.9635 33.4135 18.2519 33.4135 17.2365C33.4135 16.3154 33.6 15.5692 33.9538 15.0115C34.1047 14.7482 34.3244 14.5309 34.5893 14.3829C34.8542 14.2349 35.1544 14.1617 35.4577 14.1711H35.4558Z" fill="#5CBCD2"/>
</svg>
